 <svg  version="1.0" xmlns="http://www.w3.org/2000/svg"  width="300.000000pt" height="300.000000pt" viewBox="0 0 300.000000 300.000000"  preserveAspectRatio="xMidYMid meet">  <g transform="translate(0.000000,300.000000) scale(0.100000,-0.100000)" fill="#7e74f1" stroke="none"> <path d="M1282 1653 c3 -92 5 -106 21 -109 14 -2 17 6 17 47 l0 49 70 0 70 0 0 -49 c0 -44 2 -49 20 -44 18 5 20 14 20 109 0 97 -1 104 -20 104 -17 0 -20 -7 -20 -40 l0 -40 -70 0 -70 0 0 40 c0 34 -3 40 -20 40 -20 0 -21 -5 -18 -107z"/> <path d="M1562 1655 c-42 -84 -49 -107 -37 -111 8 -3 20 -4 27 -1 7 3 3 6 -10 6 -22 1 -21 5 31 106 30 58 51 105 48 105 -4 0 -30 -47 -59 -105z"/> <path d="M1685 1630 c40 -79 40 -80 20 -80 -8 0 -30 30 -49 67 l-33 67 -32 -62 c-17 -34 -29 -62 -26 -62 2 0 16 23 31 52 l26 51 32 -59 c22 -41 38 -60 54 -62 12 -2 22 2 22 8 0 13 -68 150 -75 150 -3 0 11 -31 30 -70z"/> <path d="M1375 1523 c56 -3 73 -8 88 -24 9 -12 17 -17 17 -12 0 6 -8 17 -18 26 -14 13 -35 17 -88 15 l-69 -2 70 -3z"/> <path d="M1510 1420 c0 -103 1 -110 20 -110 17 0 20 7 20 50 l0 50 68 0 67 0 -3 -50 c-4 -48 -3 -50 22 -50 l26 0 0 110 0 110 -26 0 c-24 0 -26 -3 -22 -40 l4 -40 -68 0 -68 0 0 40 c0 33 -3 40 -20 40 -19 0 -20 -7 -20 -110z"/> <path d="M1315 1480 c-15 -24 17 -40 74 -38 l56 1 -59 6 c-83 8 -85 29 -4 34 l63 3 -62 2 c-34 1 -65 -3 -68 -8z"/> <path d="M1270 1374 c0 -6 9 -23 21 -38 19 -24 26 -26 87 -24 l67 2 -68 3 c-64 4 -69 6 -87 36 -11 18 -20 27 -20 21z"/> <path d="M1316 1366 c5 -12 19 -16 59 -16 30 0 56 3 58 8 3 4 -17 5 -44 4 -30 -3 -56 1 -65 8 -12 11 -13 10 -8 -4z"/> </g> </svg> 